<?xml version="1.0" encoding="utf-8"?>
<!-- Generator: Adobe Illustrator 24.1.3, SVG Export Plug-In . SVG Version: 6.00 Build 0)  -->
<svg version="1.1" id="Layer_1" xmlns="http://www.w3.org/2000/svg" xmlns:xlink="http://www.w3.org/1999/xlink" x="0px" y="0px"
	 viewBox="0 0 470.6 648" style="enable-background:new 0 0 470.6 648;" xml:space="preserve">
<style type="text/css">
	.st0{fill:#FACC2A;}
</style>
<path class="st0" d="M183.8,398.1c-3.5,8.1-3.8,16.6-3.4,25.2c0.6,13.5,6.7,26.1,17,34.9c10.5,9.3,23.2,13.6,37.6,12.9
	c16-0.8,28.9-7,39.2-19.3c18.3-22,14.3-58.7-9.3-75.9c-11.9-8.9-27.1-12.3-41.7-9.5C205.1,369.7,191.4,379.9,183.8,398.1z"/>
<path class="st0" d="M43.8,279.9c19-26.6,43-47.6,70.6-65c23.9-15,50.3-21.9,77.4-27.8c20.9-4.5,42.2-5.4,63.4-4
	c33.4,2.3,65,11.2,93.8,29c21.9,13.6,42,29.2,59.5,48c20.2,21.8,35.3,46.8,46.1,74.4c6.5,16.5,10.2,33.8,12.8,51.2
	c0.5,4.1,0.5,8.2,0,12.3c-0.1,1.2-2.4,3-3.8,3c-29.9,1-58.7-3.9-86.4-15.6c-26.3-11.1-47.5-28.5-66.9-48.9
	c-15.4-16.2-34.9-24.8-56.8-28.6c-26.2-4.5-51-0.2-74.4,11.9c-21.5,11-36,28.8-45.3,50.9c-5.3,12.6-9,25.8-9.8,39.6
	c-0.1,1.5-0.9,3-1.6,4.8h-5.7c-54.3,0-112.4,0.4-116.5,0C-2.2,365,18,316,43.8,279.9z"/>
<path class="st0" d="M0,177C0,108,59.1,6.7,175.9,2.2l156.5-1.2c43.1-0.3,86.1-0.7,129.2-1.1c7-0.1,7-0.1,6.9,6.7
	c-0.3,32-10.7,60.1-34.2,82.3c-16.5,15.6-36.6,25-58.5,30.8c-12.5,3.3-25.3,4.2-38.2,4.2c-44.4,0.1-88.8-0.2-133.2,0.1
	c-22.8,0.2-43.1,7.5-59.3,24.2c-15.7,16.2-21.4,39.3-22.5,43.4C69.1,215.2,17.4,268.6,0,332.4V177z"/>
<path class="st0" d="M391.9,634.5c-46.7-46.9-140.5-139.6-146.1-145.8c33.4-8.1,53.8-29.5,64.1-62.1c1.5,1.3,77.6,76.5,149.2,149.1
	c9.6,9.2,21.2,39.7-4.2,62.1C431.9,658,401,643.6,391.9,634.5z"/>
<path class="st0" d="M180.4,389.2c8-19.1,22.6-30.1,41.9-33.6c15.6-3,31.8,0.7,44.6,10.2c25.3,18.4,29.5,57.6,10,81.2
	c-11,13.2-24.7,19.8-41.9,20.7c-15.5,0.8-29-3.9-40.3-13.8c-11-9.4-17.6-22.9-18.2-37.3C176.1,407.3,176.5,398.2,180.4,389.2z"/>
</svg>
