<svg class="prefix__animated" id="prefix__freepik_stories-house-searching" xmlns="http://www.w3.org/2000/svg" viewBox="0 0 500 500" version="1.1"><style>@keyframes fadeIn{0%{opacity:0}to{opacity:1}}@keyframes slideLeft{0%{opacity:0;transform:translateX(-30px)}to{opacity:1;transform:translateX(0)}}@keyframes heartbeat{0%,30%,40%,60%,to{transform:scale(1)}10%,50%{transform:scale(1.1)}}svg#prefix__freepik_stories-house-searching:not(.prefix__animated) .prefix__animable{opacity:0}</style><g id="prefix__freepik--background-complete--inject-38" class="prefix__animable prefix__animator-active" style="transform-origin:292.345px 230.56px;animation:1s 1 forwards cubic-bezier(.36,-.01,.5,1.38) fadeIn;animation-delay:0s"><path style="transform-origin:447.405px 363.92px" id="prefix__elp9dntbc087k" class="prefix__animable" fill="#f5f5f5" d="M420.83 328.87h53.15v70.1h-53.15z"/><path style="transform-origin:461.52px 363.92px" id="prefix__elr8ii4w1hrdo" class="prefix__animable" fill="#ebebeb" d="M449.06 328.87h24.92v70.1h-24.92z"/><path style="transform-origin:434.36px 344.165px" id="prefix__elfzvjz7jps2m" class="prefix__animable" fill="#ebebeb" d="M431.97 338.36h4.78v11.61h-4.78z"/><path style="transform-origin:434.36px 389.605px" id="prefix__el2o5d2jm0hru" class="prefix__animable" fill="#ebebeb" d="M431.97 383.8h4.78v11.61h-4.78z"/><path d="M449.06 354.52c0 .1-6.32.18-14.11.18s-14.12-.08-14.12-.18 6.32-.18 14.12-.18 14.11.08 14.11.18z" style="transform-origin:434.945px 354.52px" id="prefix__eleidfkjrouyt" class="prefix__animable" fill="#ebebeb"/><path style="transform-origin:434.36px 367.055px" id="prefix__eljqj4lk0axb8" class="prefix__animable" fill="#ebebeb" d="M431.97 361.25h4.78v11.61h-4.78z"/><path d="M449.06 377.42c0 .1-6.32.18-14.11.18s-14.12-.08-14.12-.18 6.32-.19 14.12-.19 14.11.09 14.11.19z" style="transform-origin:434.945px 377.415px" id="prefix__elzktjmnvk5jr" class="prefix__animable" fill="#ebebeb"/><path style="transform-origin:456.74px 344.165px" id="prefix__eldhs7gd1l1qu" class="prefix__animable" fill="#e0e0e0" d="M454.35 338.36h4.78v11.61h-4.78z"/><path style="transform-origin:467.11px 344.165px" id="prefix__elvauq9r48p9" class="prefix__animable" fill="#e0e0e0" d="M464.72 338.36h4.78v11.61h-4.78z"/><path style="transform-origin:456.74px 366.195px" id="prefix__elttakj3hcj5" class="prefix__animable" fill="#e0e0e0" d="M454.35 360.39h4.78V372h-4.78z"/><path style="transform-origin:467.11px 366.195px" id="prefix__elfgnwz0s793u" class="prefix__animable" fill="#e0e0e0" d="M464.72 360.39h4.78V372h-4.78z"/><path style="transform-origin:456.74px 388.225px" id="prefix__elo18hr6ac3h" class="prefix__animable" fill="#e0e0e0" d="M454.35 382.42h4.78v11.61h-4.78z"/><path style="transform-origin:467.11px 388.225px" id="prefix__el0k8oc9i9m4qo" class="prefix__animable" fill="#e0e0e0" d="M464.72 382.42h4.78v11.61h-4.78z"/><path style="transform-origin:447.4px 327.685px" id="prefix__el8z3ae0wo21o" class="prefix__animable" fill="#e0e0e0" d="M416.83 326.42h61.14v2.53h-61.14z"/><path d="M474.35 329.19c0 .1-11.88.18-26.53.18s-26.53-.08-26.53-.18 11.88-.18 26.53-.18 26.53.08 26.53.18z" style="transform-origin:447.82px 329.19px" id="prefix__elgz20unyrhw4" class="prefix__animable" fill="#f5f5f5"/><path style="transform-origin:314.46px 275.79px" id="prefix__elcgb2btrovy" class="prefix__animable" fill="#ebebeb" d="M267.08 151.78h94.76V399.8h-94.76z"/><path style="transform-origin:338.14px 275.79px" id="prefix__elwhic9e1wpz" class="prefix__animable" fill="#e0e0e0" d="M314.45 151.78h47.38V399.8h-47.38z"/><path style="transform-origin:294.63px 137.04px" id="prefix__elsz1v5ap3mcs" class="prefix__animable" fill="#ebebeb" d="M277.9 122.3h33.46v29.48H277.9z"/><path style="transform-origin:307.365px 137.04px" id="prefix__elfjvd8hjkcr" class="prefix__animable" fill="#e0e0e0" d="M303.38 122.3h7.97v29.48h-7.97z"/><path style="transform-origin:311.89px 150.92px" id="prefix__el153mt5tit2a" class="prefix__animable" fill="#e0e0e0" d="M259.18 150.06H364.6v1.72H259.18z"/><path style="transform-origin:289.79px 173.095px" id="prefix__el3vtxhr98n2x" class="prefix__animable" fill="#fff" d="M285.78 164.64h8.02v16.91h-8.02z"/><path d="M314.45 188.19c0 .18-10.6.32-23.68.32s-23.69-.14-23.69-.32 10.6-.33 23.69-.33 23.68.14 23.68.33z" style="transform-origin:290.765px 188.185px" id="prefix__elqx8oi341l7p" class="prefix__animable" fill="#e0e0e0"/><path style="transform-origin:337.58px 173.095px" id="prefix__el1786bjyjop2" class="prefix__animable" fill="#f5f5f5" d="M333.57 164.64h8.02v16.91h-8.02z"/><path d="M362.24 188.19c0 .18-10.6.32-23.68.32s-23.69-.14-23.69-.32 10.6-.33 23.69-.33 23.68.14 23.68.33z" style="transform-origin:338.555px 188.185px" id="prefix__elanrnyn6hz7" class="prefix__animable" fill="#ebebeb"/><path style="transform-origin:337.58px 206.665px" id="prefix__elgl7ytga6wil" class="prefix__animable" fill="#f5f5f5" d="M333.57 198.21h8.02v16.91h-8.02z"/><path d="M362.24 221.76c0 .18-10.6.33-23.68.33s-23.69-.15-23.69-.33 10.6-.32 23.69-.32 23.68.15 23.68.32z" style="transform-origin:338.555px 221.765px" id="prefix__el0y4vc9jfm7w" class="prefix__animable" fill="#ebebeb"/><path style="transform-origin:337.58px 241.255px" id="prefix__elv93rxlj9bn" class="prefix__animable" fill="#f5f5f5" d="M333.57 232.8h8.02v16.91h-8.02z"/><path d="M362.24 256.35c0 .18-10.6.33-23.68.33s-23.69-.15-23.69-.33 10.6-.32 23.69-.32 23.68.15 23.68.32z" style="transform-origin:338.555px 256.355px" id="prefix__elwymbct0m2g" class="prefix__animable" fill="#ebebeb"/><path style="transform-origin:337.58px 275.855px" id="prefix__elb9a73brv4ga" class="prefix__animable" fill="#f5f5f5" d="M333.57 267.4h8.02v16.91h-8.02z"/><path d="M362.24 290.94c0 .18-10.6.33-23.68.33s-23.69-.15-23.69-.33 10.6-.32 23.69-.32 23.68.15 23.68.32z" style="transform-origin:338.555px 290.945px" id="prefix__elqsxuvuoo65q" class="prefix__animable" fill="#ebebeb"/><path style="transform-origin:337.58px 309.455px" id="prefix__elr72xsedttac" class="prefix__animable" fill="#f5f5f5" d="M333.57 301h8.02v16.91h-8.02z"/><path d="M362.24 324.55c0 .17-10.6.32-23.68.32s-23.69-.15-23.69-.32 10.6-.33 23.69-.33 23.68.15 23.68.33z" style="transform-origin:338.555px 324.545px" id="prefix__el6v38u9drauf" class="prefix__animable" fill="#ebebeb"/><path style="transform-origin:337.58px 343.185px" id="prefix__elyqk4ds0l1ul" class="prefix__animable" fill="#f5f5f5" d="M333.57 334.73h8.02v16.91h-8.02z"/><path style="transform-origin:337.58px 377.365px" id="prefix__elzla94wsaj2" class="prefix__animable" fill="#f5f5f5" d="M333.57 368.91h8.02v16.91h-8.02z"/><path d="M362.24 358.28c0 .18-10.6.33-23.68.33s-23.69-.15-23.69-.33 10.6-.32 23.69-.32 23.68.14 23.68.32z" style="transform-origin:338.555px 358.285px" id="prefix__elyudacff9b5" class="prefix__animable" fill="#ebebeb"/><path style="transform-origin:289.79px 207.185px" id="prefix__el78v0r4ud9qv" class="prefix__animable" fill="#fff" d="M285.78 198.73h8.02v16.91h-8.02z"/><path d="M314.45 222.28c0 .17-10.6.32-23.68.32s-23.69-.15-23.69-.32 10.6-.33 23.69-.33 23.68.15 23.68.33z" style="transform-origin:290.765px 222.275px" id="prefix__el3pl01atx7s5" class="prefix__animable" fill="#e0e0e0"/><path style="transform-origin:289.79px 241.275px" id="prefix__elux6wkmsweco" class="prefix__animable" fill="#fff" d="M285.78 232.82h8.02v16.91h-8.02z"/><path d="M314.45 256.37c0 .17-10.6.32-23.68.32s-23.69-.15-23.69-.32 10.6-.33 23.69-.33 23.68.15 23.68.33z" style="transform-origin:290.765px 256.365px" id="prefix__elgs7oje5qngf" class="prefix__animable" fill="#e0e0e0"/><path style="transform-origin:289.79px 275.365px" id="prefix__elpzv7ss584sh" class="prefix__animable" fill="#fff" d="M285.78 266.91h8.02v16.91h-8.02z"/><path d="M314.45 290.46c0 .17-10.6.32-23.68.32s-23.69-.15-23.69-.32 10.6-.33 23.69-.33 23.68.15 23.68.33z" style="transform-origin:290.765px 290.455px" id="prefix__elc4v6wepasan" class="prefix__animable" fill="#e0e0e0"/><path style="transform-origin:289.79px 309.455px" id="prefix__elecs13h8umf" class="prefix__animable" fill="#fff" d="M285.78 301h8.02v16.91h-8.02z"/><path d="M314.45 324.55c0 .17-10.6.32-23.68.32s-23.69-.15-23.69-.32 10.6-.33 23.69-.33 23.68.15 23.68.33z" style="transform-origin:290.765px 324.545px" id="prefix__eld9dw3egcvsq" class="prefix__animable" fill="#e0e0e0"/><path style="transform-origin:289.79px 343.545px" id="prefix__elpuzu6amj6n" class="prefix__animable" fill="#fff" d="M285.78 335.09h8.02V352h-8.02z"/><path d="M314.45 358.64c0 .17-10.6.32-23.68.32s-23.69-.15-23.69-.32 10.6-.33 23.69-.33 23.68.15 23.68.33z" style="transform-origin:290.765px 358.635px" id="prefix__els2t4d3sr89l" class="prefix__animable" fill="#e0e0e0"/><path style="transform-origin:289.79px 377.635px" id="prefix__elad87sxgu0v4" class="prefix__animable" fill="#fff" d="M285.78 369.18h8.02v16.91h-8.02z"/><path style="transform-origin:193.46px 351.45px" id="prefix__elc10eil640e7" class="prefix__animable" fill="#ebebeb" d="M157.13 303.53h72.66v95.84h-72.66z"/><path style="transform-origin:212.755px 351.45px" id="prefix__elgcnbiw4oh8" class="prefix__animable" fill="#e0e0e0" d="M195.72 303.53h34.07v95.84h-34.07z"/><path style="transform-origin:175.625px 324.435px" id="prefix__elhamvsmwnia" class="prefix__animable" fill="#f5f5f5" d="M172.36 316.5h6.53v15.87h-6.53z"/><path style="transform-origin:175.625px 386.565px" id="prefix__el7cjnxvbyd5m" class="prefix__animable" fill="#f5f5f5" d="M172.36 378.63h6.53v15.87h-6.53z"/><path d="M195.72 338.61c0 .17-8.64.32-19.3.32s-19.29-.15-19.29-.32 8.64-.33 19.29-.33 19.3.15 19.3.33z" style="transform-origin:176.425px 338.605px" id="prefix__eldlc9x3tklaw" class="prefix__animable" fill="#f5f5f5"/><path style="transform-origin:175.625px 355.735px" id="prefix__elpnjqr52uf6" class="prefix__animable" fill="#f5f5f5" d="M172.36 347.8h6.53v15.87h-6.53z"/><path d="M195.72 369.9c0 .18-8.64.33-19.3.33s-19.29-.15-19.29-.33 8.64-.32 19.29-.32 19.3.15 19.3.32z" style="transform-origin:176.425px 369.905px" id="prefix__el5juybv7qyl2" class="prefix__animable" fill="#f5f5f5"/><path style="transform-origin:206.215px 324.435px" id="prefix__elt6io1oijx7c" class="prefix__animable" fill="#f5f5f5" d="M202.95 316.5h6.53v15.87h-6.53z"/><path style="transform-origin:220.395px 324.435px" id="prefix__elihy3in38ng" class="prefix__animable" fill="#f5f5f5" d="M217.13 316.5h6.53v15.87h-6.53z"/><path style="transform-origin:206.215px 354.555px" id="prefix__elqt8fas7bahd" class="prefix__animable" fill="#f5f5f5" d="M202.95 346.62h6.53v15.87h-6.53z"/><path style="transform-origin:220.395px 354.555px" id="prefix__elu4mzmpfccq9" class="prefix__animable" fill="#f5f5f5" d="M217.13 346.62h6.53v15.87h-6.53z"/><path style="transform-origin:206.215px 384.675px" id="prefix__elc360jl31gl4" class="prefix__animable" fill="#f5f5f5" d="M202.95 376.74h6.53v15.87h-6.53z"/><path style="transform-origin:220.395px 384.675px" id="prefix__elr841pk4ssfa" class="prefix__animable" fill="#f5f5f5" d="M217.13 376.74h6.53v15.87h-6.53z"/><path style="transform-origin:193.465px 301.92px" id="prefix__el12lxcnh40meh" class="prefix__animable" fill="#e0e0e0" d="M151.67 300.19h83.59v3.46h-83.59z"/><path d="M230.3 304c0 .18-16.24.33-36.27.33s-36.28-.15-36.28-.33 16.24-.32 36.28-.32 36.27.12 36.27.32z" style="transform-origin:194.025px 304.005px" id="prefix__ely0mxqar92t" class="prefix__animable" fill="#ebebeb"/><path d="M384.63 184.69L449 185s-6.1-14-19.13-14c-9.93 0-10.37 6.18-16.34 7.95s-18.53-9.05-28.9 5.74z" style="transform-origin:416.815px 178px" id="prefix__elvy0yn5xmcga" class="prefix__animable" fill="#ebebeb"/><path d="M106.72 116.15l113.2.47s-10.72-24.53-33.63-24.54c-17.46 0-18.24 10.87-28.72 14S125 90.14 106.72 116.15z" style="transform-origin:163.32px 104.35px" id="prefix__eloakdiy8v2e" class="prefix__animable" fill="#f5f5f5"/><path d="M333.76 79.46l85.29.35S411 61.33 393.71 61.32c-13.16 0-13.74 8.19-21.64 10.53s-24.57-11.99-38.31 7.61z" style="transform-origin:376.405px 70.565px" id="prefix__ele8uxozw7hn7" class="prefix__animable" fill="#fafafa"/></g><g id="prefix__freepik--Floor--inject-38" class="prefix__animable" style="transform-origin:249.58px 399px"><path d="M484.35 399c0 .15-105.12.26-234.76.26s-234.78-.11-234.78-.26 105.09-.26 234.78-.26 234.76.12 234.76.26z" style="transform-origin:249.58px 399px" id="prefix__el02pxxmar4xv8" class="prefix__animable" fill="#263238"/></g><g id="prefix__freepik--Buildings--inject-38" class="prefix__animable" style="transform-origin:327.415px 292.93px"><path style="transform-origin:408.565px 326.365px" id="prefix__el13sk1kgeirpq" class="prefix__animable" fill="#455a64" d="M380.86 253.85h55.41v145.03h-55.41z"/><path style="transform-origin:422.41px 326.365px" id="prefix__el792pgn3qevt" class="prefix__animable" fill="#263238" d="M408.56 253.85h27.7v145.03h-27.7z"/><path style="transform-origin:396.975px 245.23px" id="prefix__elea5q0vxi1aq" class="prefix__animable" fill="#455a64" d="M387.19 236.61h19.57v17.24h-19.57z"/><path style="transform-origin:404.42px 245.23px" id="prefix__elcpya0er3d2n" class="prefix__animable" fill="#263238" d="M402.09 236.61h4.66v17.24h-4.66z"/><path style="transform-origin:407.065px 253.345px" id="prefix__ellvugy1w1vc" class="prefix__animable" fill="#455a64" d="M376.24 252.84h61.65v1.01h-61.65z"/><path style="transform-origin:394.145px 266.315px" id="prefix__el9d4twg33qho" class="prefix__animable" fill="#263238" d="M391.8 261.37h4.69v9.89h-4.69z"/><path d="M408.56 275.14c0 .1-6.2.19-13.85.19s-13.85-.09-13.85-.19 6.2-.19 13.85-.19 13.85.05 13.85.19z" style="transform-origin:394.71px 275.14px" id="prefix__el51xdyvoq4l" class="prefix__animable" fill="#263238"/><path style="transform-origin:422.085px 266.315px" id="prefix__ell76t2p7k8i" class="prefix__animable" fill="#455a64" d="M419.74 261.37h4.69v9.89h-4.69z"/><path d="M436.51 275.14c0 .1-6.2.19-13.85.19s-13.85-.09-13.85-.19 6.2-.19 13.85-.19 13.85.05 13.85.19z" style="transform-origin:422.66px 275.14px" id="prefix__el9wncb9x1pwe" class="prefix__animable" fill="#455a64"/><path style="transform-origin:422.085px 285.945px" id="prefix__el925angk8m88" class="prefix__animable" fill="#455a64" d="M419.74 281h4.69v9.89h-4.69z"/><path d="M436.51 294.77c0 .11-6.2.19-13.85.19s-13.85-.08-13.85-.19 6.2-.19 13.85-.19 13.85.09 13.85.19z" style="transform-origin:422.66px 294.77px" id="prefix__el0j6ln8h4q3ol" class="prefix__animable" fill="#455a64"/><path style="transform-origin:422.085px 306.175px" id="prefix__eluhgwiuvavi" class="prefix__animable" fill="#455a64" d="M419.74 301.23h4.69v9.89h-4.69z"/><path d="M436.51 315c0 .1-6.2.19-13.85.19s-13.85-.09-13.85-.19 6.2-.19 13.85-.19 13.85.08 13.85.19z" style="transform-origin:422.66px 315px" id="prefix__elel6kf6ai8iu" class="prefix__animable" fill="#455a64"/><path style="transform-origin:422.085px 326.395px" id="prefix__el73sdej4zl9a" class="prefix__animable" fill="#455a64" d="M419.74 321.45h4.69v9.89h-4.69z"/><path d="M436.51 335.22c0 .11-6.2.19-13.85.19s-13.85-.08-13.85-.19 6.2-.18 13.85-.18 13.85.08 13.85.18z" style="transform-origin:422.66px 335.225px" id="prefix__ele9v2ysyrgv8" class="prefix__animable" fill="#455a64"/><path style="transform-origin:422.085px 346.045px" id="prefix__elwz081173aj" class="prefix__animable" fill="#455a64" d="M419.74 341.1h4.69v9.89h-4.69z"/><path d="M436.51 354.87c0 .11-6.2.19-13.85.19s-13.85-.08-13.85-.19 6.2-.19 13.85-.19 13.85.09 13.85.19z" style="transform-origin:422.66px 354.87px" id="prefix__eld3i8z9tj6xp" class="prefix__animable" fill="#455a64"/><path style="transform-origin:422.085px 365.775px" id="prefix__el3ynyvevxox" class="prefix__animable" fill="#455a64" d="M419.74 360.83h4.69v9.89h-4.69z"/><path style="transform-origin:422.085px 385.765px" id="prefix__elgh9zg8ppg9q" class="prefix__animable" fill="#455a64" d="M419.74 380.82h4.69v9.89h-4.69z"/><path d="M436.51 374.6c0 .11-6.2.19-13.85.19s-13.85-.08-13.85-.19 6.2-.19 13.85-.19 13.85.09 13.85.19z" style="transform-origin:422.66px 374.6px" id="prefix__elm5fh7td24x" class="prefix__animable" fill="#455a64"/><path style="transform-origin:394.145px 286.245px" id="prefix__el1pqymzsi3v9" class="prefix__animable" fill="#263238" d="M391.8 281.3h4.69v9.89h-4.69z"/><path d="M408.56 295.07c0 .1-6.2.19-13.85.19s-13.85-.09-13.85-.19 6.2-.19 13.85-.19 13.85.12 13.85.19z" style="transform-origin:394.71px 295.07px" id="prefix__elwgi2q4vjf09" class="prefix__animable" fill="#263238"/><path style="transform-origin:394.145px 306.175px" id="prefix__el176i3fesxo4" class="prefix__animable" fill="#263238" d="M391.8 301.23h4.69v9.89h-4.69z"/><path d="M408.56 315c0 .11-6.2.19-13.85.19s-13.85-.08-13.85-.19 6.2-.18 13.85-.18 13.85.08 13.85.18z" style="transform-origin:394.71px 315.005px" id="prefix__elm30f6izx0q" class="prefix__animable" fill="#263238"/><path style="transform-origin:394.145px 326.115px" id="prefix__eliwlk2du6xq" class="prefix__animable" fill="#263238" d="M391.8 321.17h4.69v9.89h-4.69z"/><path d="M408.56 334.94c0 .1-6.2.19-13.85.19s-13.85-.09-13.85-.19 6.2-.19 13.85-.19 13.85.08 13.85.19z" style="transform-origin:394.71px 334.94px" id="prefix__elsgx3x14nbr" class="prefix__animable" fill="#263238"/><path style="transform-origin:394.145px 346.045px" id="prefix__el64icem65ve3" class="prefix__animable" fill="#263238" d="M391.8 341.1h4.69v9.89h-4.69z"/><path d="M408.56 354.87c0 .11-6.2.19-13.85.19s-13.85-.08-13.85-.19 6.2-.19 13.85-.19 13.85.09 13.85.19z" style="transform-origin:394.71px 354.87px" id="prefix__ely6p7ritub7" class="prefix__animable" fill="#263238"/><path style="transform-origin:394.145px 365.985px" id="prefix__el9y45e2id3g5" class="prefix__animable" fill="#263238" d="M391.8 361.04h4.69v9.89h-4.69z"/><path d="M408.56 374.81c0 .1-6.2.19-13.85.19s-13.85-.09-13.85-.19 6.2-.19 13.85-.19 13.85.08 13.85.19z" style="transform-origin:394.71px 374.81px" id="prefix__el62k0skjogn7" class="prefix__animable" fill="#263238"/><path style="transform-origin:394.145px 385.915px" id="prefix__eldwq9qqwlupa" class="prefix__animable" fill="#263238" d="M391.8 380.97h4.69v9.89h-4.69z"/><path style="transform-origin:260.455px 300.48px" id="prefix__el9jk8lov2uyn" class="prefix__animable" fill="#455a64" d="M223.39 202.02h74.13v196.92h-74.13z"/><path style="transform-origin:283.305px 300.48px" id="prefix__elfzb67kp5z6p" class="prefix__animable" fill="#263238" d="M269.08 202.02h28.45v196.92h-28.45z"/><path style="transform-origin:283.305px 223.5px" id="prefix__elh62lb5qghpu" class="prefix__animable" fill="#455a64" d="M280.49 217.56h5.63v11.88h-5.63z"/><path style="transform-origin:283.305px 244.34px" id="prefix__el234xfmf80ho" class="prefix__animable" fill="#455a64" d="M280.49 238.4h5.63v11.88h-5.63z"/><path style="transform-origin:283.305px 267.68px" id="prefix__el2knpbkr7hb4" class="prefix__animable" fill="#455a64" d="M280.49 261.74h5.63v11.88h-5.63z"/><path style="transform-origin:283.305px 289.98px" id="prefix__elusvrn2kbqg" class="prefix__animable" fill="#455a64" d="M280.49 284.04h5.63v11.88h-5.63z"/><path style="transform-origin:283.305px 312.29px" id="prefix__elv16k1805sk" class="prefix__animable" fill="#455a64" d="M280.49 306.35h5.63v11.88h-5.63z"/><path style="transform-origin:283.305px 334.59px" id="prefix__elir3dwmtoxh" class="prefix__animable" fill="#455a64" d="M280.49 328.65h5.63v11.88h-5.63z"/><path style="transform-origin:283.305px 356.9px" id="prefix__el3t4q3mrbzl3" class="prefix__animable" fill="#455a64" d="M280.49 350.96h5.63v11.88h-5.63z"/><path style="transform-origin:283.305px 381.42px" id="prefix__elr5an7r10x6" class="prefix__animable" fill="#455a64" d="M280.49 375.48h5.63v11.88h-5.63z"/><path style="transform-origin:259.08px 201.93px" id="prefix__elyw5c69z1lz" class="prefix__animable" fill="#263238" d="M216.94 200.78h84.28v2.3h-84.28z"/><path style="transform-origin:268.305px 194.425px" id="prefix__el2vlo2mzm5hd" class="prefix__animable" fill="#263238" d="M253.3 186.92h30.01v15.01H253.3z"/><path style="transform-origin:261.19px 193.85px" id="prefix__elnxbq2upcapl" class="prefix__animable" fill="#455a64" d="M253.3 186.92h15.78v13.86H253.3z"/><path style="transform-origin:236.755px 223.01px" id="prefix__el4lraf0xnymk" class="prefix__animable" fill="#263238" d="M233.94 217.07h5.63v11.88h-5.63z"/><path style="transform-origin:251.755px 223.01px" id="prefix__elq13su0ze1uk" class="prefix__animable" fill="#263238" d="M248.94 217.07h5.63v11.88h-5.63z"/><path style="transform-origin:236.755px 245.64px" id="prefix__eltij46rwzfv8" class="prefix__animable" fill="#263238" d="M233.94 239.7h5.63v11.88h-5.63z"/><path style="transform-origin:251.755px 245.64px" id="prefix__elcjubb4quldm" class="prefix__animable" fill="#263238" d="M248.94 239.7h5.63v11.88h-5.63z"/><path style="transform-origin:236.755px 268.27px" id="prefix__elrmi4yd0o8ip" class="prefix__animable" fill="#263238" d="M233.94 262.33h5.63v11.88h-5.63z"/><path style="transform-origin:251.755px 268.27px" id="prefix__el6ab7jlm05y" class="prefix__animable" fill="#263238" d="M248.94 262.33h5.63v11.88h-5.63z"/><path style="transform-origin:236.755px 290.9px" id="prefix__elosokq8i6cis" class="prefix__animable" fill="#263238" d="M233.94 284.96h5.63v11.88h-5.63z"/><path style="transform-origin:251.755px 290.9px" id="prefix__elwzqouiv871" class="prefix__animable" fill="#263238" d="M248.94 284.96h5.63v11.88h-5.63z"/><path style="transform-origin:236.755px 313.53px" id="prefix__elxus0976zew" class="prefix__animable" fill="#263238" d="M233.94 307.59h5.63v11.88h-5.63z"/><path style="transform-origin:251.755px 313.53px" id="prefix__eltevk5cq38lr" class="prefix__animable" fill="#263238" d="M248.94 307.59h5.63v11.88h-5.63z"/><path style="transform-origin:236.755px 336.16px" id="prefix__elljth6i4ncyh" class="prefix__animable" fill="#263238" d="M233.94 330.22h5.63v11.88h-5.63z"/><path style="transform-origin:251.755px 336.16px" id="prefix__el7bqa75hs9xb" class="prefix__animable" fill="#263238" d="M248.94 330.22h5.63v11.88h-5.63z"/><path style="transform-origin:236.755px 358.79px" id="prefix__el0w9eovw24s8k" class="prefix__animable" fill="#263238" d="M233.94 352.85h5.63v11.88h-5.63z"/><path style="transform-origin:251.755px 358.79px" id="prefix__elw4ma12tgvy" class="prefix__animable" fill="#263238" d="M248.94 352.85h5.63v11.88h-5.63z"/><path style="transform-origin:236.755px 381.42px" id="prefix__elvhi34cqmam" class="prefix__animable" fill="#263238" d="M233.94 375.48h5.63v11.88h-5.63z"/><path style="transform-origin:251.755px 381.42px" id="prefix__el4blmvijo5cr" class="prefix__animable" fill="#263238" d="M248.94 375.48h5.63v11.88h-5.63z"/><path d="M269.08 233.61c0 .2-10.23.36-22.84.36s-22.85-.16-22.85-.36 10.23-.35 22.85-.35 22.84.16 22.84.35z" style="transform-origin:246.235px 233.615px" id="prefix__eloqcdq6mnyg" class="prefix__animable" fill="#263238"/><path d="M269.08 256.32c0 .2-10.23.36-22.84.36s-22.85-.16-22.85-.36 10.23-.35 22.85-.35 22.84.16 22.84.35z" style="transform-origin:246.235px 256.325px" id="prefix__el749s3p4cbcj" class="prefix__animable" fill="#263238"/><path d="M269.08 279.31c0 .19-10.23.35-22.84.35s-22.85-.16-22.85-.35 10.23-.36 22.85-.36 22.84.16 22.84.36z" style="transform-origin:246.235px 279.305px" id="prefix__elmwdya3dmj19" class="prefix__animable" fill="#263238"/><path d="M269.08 302.13c0 .19-10.23.35-22.84.35s-22.85-.16-22.85-.35 10.23-.36 22.85-.36 22.84.16 22.84.36z" style="transform-origin:246.235px 302.125px" id="prefix__elfedac2k0thq" class="prefix__animable" fill="#263238"/><path d="M269.08 324.62c0 .19-10.23.35-22.84.35s-22.85-.16-22.85-.35 10.23-.36 22.85-.36 22.84.16 22.84.36z" style="transform-origin:246.235px 324.615px" id="prefix__elyyffq36c9tj" class="prefix__animable" fill="#263238"/><path d="M269.08 346.5c0 .19-10.23.35-22.84.35s-22.85-.16-22.85-.35 10.23-.36 22.85-.36 22.84.16 22.84.36z" style="transform-origin:246.235px 346.495px" id="prefix__elvcbtywcrm4f" class="prefix__animable" fill="#263238"/><path d="M269.08 370.75c0 .19-10.23.35-22.84.35s-22.85-.16-22.85-.35 10.23-.36 22.85-.36 22.84.16 22.84.36z" style="transform-origin:246.235px 370.745px" id="prefix__elx0t7ogh7wt" class="prefix__animable" fill="#263238"/><path d="M297.2 233.61c0 .2-6.09.36-13.6.36s-13.6-.16-13.6-.36 6.08-.35 13.6-.35 13.6.16 13.6.35z" style="transform-origin:283.6px 233.615px" id="prefix__elv4ufycmst4f" class="prefix__animable" fill="#455a64"/><path d="M297.2 256.32c0 .2-6.09.36-13.6.36s-13.6-.16-13.6-.36 6.08-.35 13.6-.35 13.6.16 13.6.35z" style="transform-origin:283.6px 256.325px" id="prefix__elkh4zfc4rzwn" class="prefix__animable" fill="#455a64"/><path d="M297.2 279c0 .2-6.09.36-13.6.36s-13.6-.13-13.6-.36 6.08-.35 13.6-.35 13.6.19 13.6.35z" style="transform-origin:283.6px 279.005px" id="prefix__el2wi70zq7vgs" class="prefix__animable" fill="#455a64"/><path d="M296.9 302.13c0 .19-6.09.35-13.6.35s-13.6-.16-13.6-.35 6.09-.36 13.6-.36 13.6.16 13.6.36z" style="transform-origin:283.3px 302.125px" id="prefix__el1kwkv7vzyka" class="prefix__animable" fill="#455a64"/><path d="M296.9 324.62c0 .19-6.09.35-13.6.35s-13.6-.16-13.6-.35 6.09-.36 13.6-.36 13.6.16 13.6.36z" style="transform-origin:283.3px 324.615px" id="prefix__elfa0moq3luo" class="prefix__animable" fill="#455a64"/><path d="M296.9 347.11c0 .19-6.09.35-13.6.35s-13.6-.16-13.6-.35 6.09-.36 13.6-.36 13.6.16 13.6.36z" style="transform-origin:283.3px 347.105px" id="prefix__elualcae723ak" class="prefix__animable" fill="#455a64"/><path d="M296.9 370.75c0 .19-6.09.35-13.6.35s-13.6-.16-13.6-.35 6.09-.36 13.6-.36 13.6.16 13.6.36z" style="transform-origin:283.3px 370.745px" id="prefix__el9h6jpjj0zmi" class="prefix__animable" fill="#455a64"/></g><g id="prefix__freepik--House--inject-38" class="prefix__animable" style="transform-origin:324.425px 348.49px"><path style="transform-origin:296.255px 364.705px" id="prefix__elaakp93r5z4q" class="prefix__animable" fill="#ff725e" d="M281.31 330.41h29.89V399h-29.89z"/><path style="transform-origin:296.255px 364.705px" class="prefix__animable" opacity=".2" d="M281.31 330.41h29.89V399h-29.89z" id="prefix__elemletcocro"/><path style="transform-origin:333.795px 318.23px" id="prefix__eltkhyec5drwe" class="prefix__animable" fill="#ff725e" d="M274.32 330.13h73.75l13.78-19.56 14.44 20.12 16.98-.27-18.3-24.65-82.23.35-18.42 24.01z"/><path style="transform-origin:333.795px 318.23px" class="prefix__animable" fill="#fff" opacity=".2" d="M274.32 330.13h73.75l13.78-19.56 14.44 20.12 16.98-.27-18.3-24.65-82.23.35-18.42 24.01z" id="prefix__elsraa7667e8l"/><path style="transform-origin:348.025px 354.785px" id="prefix__eli2r0qskmaxr" class="prefix__animable" fill="#ff725e" d="M311.2 330.42V399h73.65v-68.58h-8.45l-14.55-19.85-13.83 19.54-36.82.31z"/><g style="transform-origin:330.22px 384.135px" class="prefix__animable" opacity=".2" id="prefix__eljqhd2yv7h2t"><path id="prefix__elanu94j5fz57" class="prefix__animable" style="transform-origin:330.22px 384.135px" d="M321.61 399v-29.73h17.22V399"/></g><path style="transform-origin:362.73px 376.835px" class="prefix__animable" fill="#fff" opacity=".7" d="M349.16 368.43h27.14v16.81h-27.14z" id="prefix__elfs7ubnhwrrs"/><path style="transform-origin:362.73px 343.195px" class="prefix__animable" fill="#fff" opacity=".7" d="M349.16 334.79h27.14v16.81h-27.14z" id="prefix__eluwkdfzva0es"/><path style="transform-origin:328.475px 343.04px" class="prefix__animable" fill="#fff" opacity=".7" d="M319.92 334.94h17.11v16.2h-17.11z" id="prefix__elhzci0ezzbrr"/><path style="transform-origin:356.995px 376.915px" id="prefix__ell7plksvzmv" class="prefix__animable" fill="#ff725e" d="M356.87 368.43h.25v16.97h-.25z"/><path style="transform-origin:368.275px 376.915px" id="prefix__el4kr2kvukg0b" class="prefix__animable" fill="#ff725e" d="M368.15 368.43h.25v16.97h-.25z"/><path style="transform-origin:362.63px 377.425px" id="prefix__elw07gvqac1ih" class="prefix__animable" fill="#ff725e" d="M356.99 377.3h11.28v.25h-11.28z"/><path style="transform-origin:356.995px 343.275px" id="prefix__elm5nd0pxqf7" class="prefix__animable" fill="#ff725e" d="M356.87 334.79h.25v16.97h-.25z"/><path style="transform-origin:368.275px 343.275px" id="prefix__elf26yk0d41i" class="prefix__animable" fill="#ff725e" d="M368.15 334.79h.25v16.97h-.25z"/><path style="transform-origin:362.63px 343.785px" id="prefix__el2fjk58tu7lp" class="prefix__animable" fill="#ff725e" d="M356.99 343.66h11.28v.25h-11.28z"/><path style="transform-origin:328.475px 343.04px" id="prefix__eliljlov6b6xh" class="prefix__animable" fill="#ff725e" d="M328.35 334.94h.25v16.2h-.25z"/><path style="transform-origin:328.475px 343.435px" id="prefix__ely9w2w6iizbs" class="prefix__animable" fill="#ff725e" d="M319.92 343.31h17.11v.25h-17.11z"/><path d="M365.44 323.66a3.63 3.63 0 11-3.63-3.63 3.64 3.64 0 013.63 3.63z" style="transform-origin:361.81px 323.66px" class="prefix__animable" fill="#fff" opacity=".7" id="prefix__el4ox5dtqqnv3"/><path style="transform-origin:335.705px 309.64px" id="prefix__elpfygk69stij" class="prefix__animable" fill="#ff725e" d="M335.92 319.21l4.58-5.65v-13.59h-9.59v19.34l5.01-.1z"/><path style="transform-origin:338.21px 309.59px" class="prefix__animable" opacity=".2" d="M335.92 319.21v-19.24h4.58v13.59l-4.58 5.65z" id="prefix__el4r4v3dw0qli"/><path style="transform-origin:335.495px 298.97px" id="prefix__elmm7pegxa0sq" class="prefix__animable" fill="#ff725e" d="M329.84 297.97h11.31v2h-11.31z"/><path style="transform-origin:283.815px 379.715px" id="prefix__elfqfpyogb4ch" class="prefix__animable" fill="#ff725e" d="M255.58 360.42h56.47v38.59h-56.47z"/><path style="transform-origin:272.99px 379.715px" class="prefix__animable" opacity=".2" d="M255.58 360.42h34.82v38.59h-34.82z" id="prefix__elo70yvrg8x9"/><path d="M283.07 398.94a2 2 0 01-.05-.5v-1.45c0-1.34 0-3.16-.08-5.43 0-4.7-.06-11.19-.1-18.7l.28.28h-20.67l.27-.28c0 7.51-.07 14-.1 18.7 0 2.27-.06 4.09-.08 5.43 0 .58 0 1.06-.05 1.45a2.42 2.42 0 010 .5 1.51 1.51 0 01-.05-.5v-1.45c0-1.34 0-3.16-.08-5.43 0-4.69-.06-11.19-.1-18.7v-.28h21.18v.28c-.05 7.51-.08 14-.11 18.7 0 2.27-.06 4.09-.08 5.43v1.45a2.8 2.8 0 01-.18.5z" style="transform-origin:272.85px 385.76px" id="prefix__el5ibg2d55e7l" class="prefix__animable" fill="#263238"/><path style="transform-origin:302.095px 373.74px" class="prefix__animable" opacity=".2" d="M294.76 371.87h14.67v3.74h-14.67z" id="prefix__elj7czzglyuyp"/><path style="transform-origin:311.17px 331.115px" id="prefix__elrylm9bj88yr" class="prefix__animable" fill="#ff725e" d="M274.32 330.13v1.99h73.7v-2.01l-73.7.02z"/><path style="transform-origin:354.935px 321.345px" id="prefix__eljfpx5jpxxae" class="prefix__animable" fill="#ff725e" d="M348.02 332.12l13.79-19.35.04-2.2-13.78 19.56-.05 1.99z"/><path style="transform-origin:384.655px 331.05px" id="prefix__eld65zbd1jvz" class="prefix__animable" fill="#ff725e" d="M376.4 330.41h16.51v1.28H376.4z"/><path style="transform-origin:329.915px 365.87px" id="prefix__elgrdw40xg20n" class="prefix__animable" fill="#263238" d="M326.87 364.71h6.09v2.32h-6.09z"/><path style="transform-origin:311.17px 331.115px" class="prefix__animable" opacity=".3" d="M274.32 330.13v1.99h73.7v-2.01l-73.7.02z" id="prefix__elssi52ex16z"/><path style="transform-origin:354.935px 321.345px" class="prefix__animable" opacity=".3" d="M348.02 332.12l13.79-19.35.04-2.2-13.78 19.56-.05 1.99z" id="prefix__elqlfzbt7i2f"/><path style="transform-origin:384.655px 331.05px" class="prefix__animable" opacity=".3" d="M376.4 330.41h16.51v1.28H376.4z" id="prefix__eloj3fmc49qy"/><path d="M337.44 384.27c-.05 0 0-.38-.45-.67a.86.86 0 00-.79-.09.82.82 0 000 1.52.86.86 0 00.79-.09c.41-.29.4-.68.45-.67s.17.43-.3.87a1.1 1.1 0 01-1.05.19 1.12 1.12 0 010-2.12 1.1 1.1 0 011.05.19c.47.45.33.9.3.87z" style="transform-origin:336.412px 384.27px" id="prefix__eld1wgxj00i1" class="prefix__animable" fill="#263238"/></g><g id="prefix__freepik--Character--inject-38" class="prefix__animable" style="transform-origin:126.073px 279.67px;animation:1s 1 forwards cubic-bezier(.36,-.01,.5,1.38) slideLeft,1.5s Infinite linear heartbeat;animation-delay:0s,1s"><path d="M197.25 285.34s-15.51 59-36.36 70.08c-13.74 7.3-25.87-1.41-34-15.21l-29.4-47.32a11 11 0 017-13.34L129 271l24.42 43.53 31.25-38" style="transform-origin:147.169px 314.532px" id="prefix__elfyl6lffa08c" class="prefix__animable" fill="#eb996e"/><path d="M44.64 289.45c.54 3.84 10.21 32.07 10.21 32.07s43.88-12.41 43.42-14.59c-.38-1.77-7.24-29.89-16.4-45.74a22.47 22.47 0 00-16.74-11.28c-1.94-.22-6.25 1.58-7.44 2.17-9.34 4.67-17.23 7.71-13.05 37.37z" style="transform-origin:70.8826px 285.706px" id="prefix__elo1dz9nwigbh" class="prefix__animable" fill="#455a64"/><path d="M113.44 248c16.85 4.69 17.61 12.35 26.05 25.86l13.29 24.2-22.14 14.11-4.06 9.1-2.19 78.26-89.21-.44 16-63.35-6.38-41.6c-.59-6.56-2.48-18.82-.46-25.15 6.33-19.78 29.94-21.89 44.46-24.89 3-.62 5.89.33 8.33 1.07" style="transform-origin:93.98px 321.715px" id="prefix__elr2jqjnmiiv" class="prefix__animable" fill="#455a64"/><path d="M126.36 325.29a13.53 13.53 0 01-.06-2c0-1.4 0-3.26.07-5.5v-.05a47.74 47.74 0 002.91-6.16 13.75 13.75 0 00.74-7.94c-.72-3-2.38-5.52-3.49-8a24.76 24.76 0 01-2-7 23.88 23.88 0 01-.13-4.87c0-.58.11-1 .16-1.32a1.32 1.32 0 01.11-.45 15 15 0 010 1.78 26.76 26.76 0 00.31 4.8 25.08 25.08 0 002.07 6.8c1.1 2.44 2.8 5 3.56 8.1a14.08 14.08 0 01-.79 8.26 45.12 45.12 0 01-3 6.18v-.1c-.11 2.24-.19 4.1-.26 5.5a11.09 11.09 0 01-.2 1.97z" style="transform-origin:127.617px 303.645px" id="prefix__elec84e6brfh6" class="prefix__animable" fill="#263238"/><path d="M114.14 245.25a2.33 2.33 0 01.15.6 12.72 12.72 0 01.2 1.77 16.28 16.28 0 01-1.08 6.45 17.28 17.28 0 01-5.84 7.7 16.66 16.66 0 01-11.4 3 19.11 19.11 0 01-6-1.63 18.12 18.12 0 01-4.77-3.26 21.14 21.14 0 01-5.23-8.15 21.77 21.77 0 01-1.25-6.42 14 14 0 010-1.78 2.36 2.36 0 01.06-.61c.07 0 0 .85.14 2.38a23.43 23.43 0 001.41 6.29 20.89 20.89 0 005.22 7.9 17.35 17.35 0 004.64 3.13 18.49 18.49 0 005.8 1.57 16.18 16.18 0 0011-2.81 17.12 17.12 0 007-13.71c.07-1.57-.12-2.41-.05-2.42z" style="transform-origin:96.6962px 253.89px" id="prefix__elqof6am1ugol" class="prefix__animable" fill="#263238"/><path d="M148.74 290.75a18 18 0 01-2.64 1.64c-1.65 1-3.95 2.28-6.45 3.79s-4.73 2.92-6.35 3.94a17.3 17.3 0 01-2.68 1.57 16.15 16.15 0 012.46-1.91c1.56-1.11 3.77-2.58 6.28-4.1s4.84-2.78 6.55-3.65a15.1 15.1 0 012.83-1.28z" style="transform-origin:139.68px 296.22px" id="prefix__elbxgt9v40su7" class="prefix__animable" fill="#263238"/><path d="M47.38 291.79s.06.18.17.53l.42 1.56 1.57 6c1.33 5.2 3.23 12.62 5.54 21.61l-.29-.16 41.26-12.89 1-.37-.19.33a178.69 178.69 0 00-8.12-27.12c-3.2-8.08-6.87-15.09-11-20.14a26.86 26.86 0 00-6.53-5.86 14 14 0 00-6.2-2.18 8.41 8.41 0 00-1.28-.11l-1.14.06c-.35 0-.67 0-1 .07l-.78.17-1.08.22a3.26 3.26 0 01-.37.06 1.63 1.63 0 01.35-.12l1.07-.27.79-.2c.3-.06.63-.06 1-.1l1.15-.08a9.87 9.87 0 011.3.07 14.19 14.19 0 016.34 2.13 26.88 26.88 0 016.64 5.85c4.27 5.07 8 12.1 11.23 20.2a177.38 177.38 0 018.2 27.2v.25l-.24.08-1 .37c-15.47 4.91-29.8 9.24-41.33 12.79l-.23.07-.06-.23c-2.23-9-4.06-16.45-5.35-21.66-.62-2.57-1.1-4.59-1.44-6l-.36-1.57a2.23 2.23 0 01-.04-.56z" style="transform-origin:72.4033px 287.305px" id="prefix__elkcg3qfjfcmb" class="prefix__animable" fill="#263238"/><path d="M95.63 302.78c0 .16-9.48 2.91-21.27 6.16S53 314.69 53 314.54s9.47-2.91 21.26-6.16 21.32-5.75 21.37-5.6z" style="transform-origin:74.315px 308.66px" id="prefix__elbo55gaotrza" class="prefix__animable" fill="#263238"/><path d="M92 174.77c-2.73-5.92-10.24-8.71-16.57-7.14s-11.33 6.74-14 12.67-3.38 12.6-3.43 19.12c0 3.45.15 6.94-.55 10.32s-2.36 6.72-5.26 8.6c-2.28 1.48-5.08 1.92-7.53 3.1s-4.7 3.69-4.09 6.35c.72 3.17 4.7 4.12 7.93 4.45a10.38 10.38 0 0017.1 7.62c-1 4 2.53 8.12 6.59 8.6s8-2.06 10.26-5.5 2.9-7.64 3.07-11.73-.12-8.23.28-12.23" style="transform-origin:66.2345px 207.858px" id="prefix__el1mdup7qu97g" class="prefix__animable" fill="#ff725e"/><path d="M138.07 182.22s3-20.1-24.66-20.47c-30.94-.41-36.52 26-31.22 39.91l15.38-15.24z" style="transform-origin:109.295px 181.703px" id="prefix__el12m3bejz4j9k" class="prefix__animable" fill="#ff725e"/><path d="M113.8 248c.31-5.35.54-9.71.54-9.71s15.84.37 18.17-13.36 5-45.71 5-45.71a41.56 41.56 0 00-46.27.76l-1.3.9-10 63.49A17.05 17.05 0 0094 263.89 17.05 17.05 0 00113.8 248z" style="transform-origin:108.618px 218.338px" id="prefix__elt2tz4xx4azi" class="prefix__animable" fill="#ffbe9d"/><path d="M131.86 203.59a1.74 1.74 0 11-1.53-2 1.76 1.76 0 011.53 2z" style="transform-origin:130.14px 203.32px" id="prefix__elzajqu4uwcw" class="prefix__animable" fill="#263238"/><path d="M133.14 201.94c-.25.21-1.4-1-3.25-1.35s-3.34.46-3.5.19.19-.52.85-.89a4.44 4.44 0 012.84-.44 4.5 4.5 0 012.54 1.37c.51.57.64 1.03.52 1.12z" style="transform-origin:129.767px 200.673px" id="prefix__ele74je27taah" class="prefix__animable" fill="#263238"/><path d="M113.29 201.81a1.74 1.74 0 11-3.45-.37 1.74 1.74 0 113.45.37z" style="transform-origin:111.565px 201.625px" id="prefix__el36w6g7sr1fg" class="prefix__animable" fill="#263238"/><path d="M114.21 200.25c-.24.21-1.4-1.05-3.24-1.35s-3.34.46-3.51.18c-.08-.12.2-.52.86-.88a4.43 4.43 0 012.84-.44 4.48 4.48 0 012.54 1.37c.5.56.63 1.03.51 1.12z" style="transform-origin:110.849px 198.982px" id="prefix__el4jg5s5hkly8" class="prefix__animable" fill="#263238"/><path d="M116.6 214.55a11.6 11.6 0 013.07.22c.48.07.94.09 1.1-.23a2.87 2.87 0 000-1.55c-.15-1.32-.3-2.7-.46-4.15-.59-5.9-.89-10.69-.67-10.72s.88 4.73 1.48 10.63c.13 1.45.26 2.83.38 4.15a3.15 3.15 0 01-.23 2 1.2 1.2 0 01-.93.52 3.18 3.18 0 01-.81-.09 11.12 11.12 0 01-2.93-.78z" style="transform-origin:119.085px 206.77px" id="prefix__el9rohr1vuayb" class="prefix__animable" fill="#263238"/><path d="M114.39 238.29a33.3 33.3 0 01-17.18-8.13s3.36 10.92 16.93 11.82z" style="transform-origin:105.8px 236.07px" id="prefix__eldmnazx3eyq" class="prefix__animable" fill="#eb996e"/><path d="M114.79 220a3.66 3.66 0 00-1.81-2.92 2.9 2.9 0 00-2.4-.26 2.09 2.09 0 00-1.36 1.9 2.4 2.4 0 001.69 2 6.66 6.66 0 002.78.16 2 2 0 00.75-.17.68.68 0 00.38-.62" style="transform-origin:112.02px 218.815px" id="prefix__el777awgv199k" class="prefix__animable" fill="#eb996e"/><path d="M110.75 215c-.13 0-.43.46-.48 1.37a5 5 0 004.17 5.08c.91.13 1.45-.07 1.44-.21 0-.31-2.14-.42-3.63-2.24s-1.2-3.95-1.5-4z" style="transform-origin:113.074px 218.246px" id="prefix__ellr3bmiudro" class="prefix__animable" fill="#263238"/><path d="M88 198.79c-.21-.15-7.88-3.46-10.07 5.57s8.29 8.11 8.37 7.85 1.7-13.42 1.7-13.42z" style="transform-origin:82.8146px 205.221px" id="prefix__ellz55ofjc64m" class="prefix__animable" fill="#ffbe9d"/><path d="M84.15 208.42s-.19.07-.51.13a1.83 1.83 0 01-1.26-.24c-.94-.57-1.43-2.26-1.08-3.9a5.06 5.06 0 011-2.15 2 2 0 011.56-.94.88.88 0 01.89.64c.07.28 0 .45 0 .48s.24-.11.26-.5a1 1 0 00-.25-.64 1.32 1.32 0 00-.87-.43 2.49 2.49 0 00-2.1 1 5.41 5.41 0 00-1.2 2.39c-.38 1.84.2 3.75 1.51 4.42a2 2 0 001.6.09c.38-.14.48-.33.45-.35z" style="transform-origin:82.7427px 204.882px" id="prefix__elz78wyw9ddo" class="prefix__animable" fill="#eb996e"/><path d="M134.37 172.89a9.49 9.49 0 013.54 10.37c-1.36 4.32-5.39 9-16.59 8.85l2.55-2.83a19.78 19.78 0 01-17.94 3.14l3.14-6.08S94.91 201.35 87 202l1-16c1.91-15.1 8.38-19.63 18.17-20.44a50.64 50.64 0 0110.92.19 37.48 37.48 0 0117.28 7.14z" style="transform-origin:112.648px 183.676px" id="prefix__el2pwyf0y4sjz" class="prefix__animable" fill="#ff725e"/><path d="M79 159.81a6.51 6.51 0 012.09.92 18 18 0 017.31 8.1 6.57 6.57 0 01.7 2.17c-.17.08-1.29-3.27-4.16-6.4S78.9 160 79 159.81z" style="transform-origin:84.0488px 165.406px" id="prefix__el3db4bihuz46" class="prefix__animable" fill="#ff725e"/><path d="M50.49 211s-.19-.2-.62-.47a3.78 3.78 0 00-2.12-.54 4 4 0 00-3 1.47 4.55 4.55 0 00-.49 4.35 5.26 5.26 0 004.17 3.19 7.31 7.31 0 005.94-1.75 10.75 10.75 0 003.61-6 8.8 8.8 0 000-3.72 16.74 16.74 0 00-1.34-3.67c-.56-1.21-1.16-2.4-1.63-3.65a15.24 15.24 0 01-.89-3.82 18.41 18.41 0 01.85-7.32 24.61 24.61 0 016.77-10.34 45.28 45.28 0 016.6-5.12c.83-.53 1.49-.93 1.94-1.19a4.82 4.82 0 01.7-.37 3.76 3.76 0 01-.64.47l-1.87 1.28A49.71 49.71 0 0062 179a24.86 24.86 0 00-6.55 10.21 18.15 18.15 0 00-.79 7.1 16 16 0 00.86 3.68c.46 1.21 1.06 2.38 1.63 3.61a17.18 17.18 0 011.37 3.79 9.39 9.39 0 010 3.95 11.26 11.26 0 01-3.84 6.28 7.77 7.77 0 01-6.35 1.81 5.66 5.66 0 01-4.48-3.55 4.91 4.91 0 01.61-4.69 4.18 4.18 0 013.27-1.49 3.7 3.7 0 012.18.66 2.17 2.17 0 01.58.64z" style="transform-origin:57.246px 195.79px" id="prefix__elnriuvm28hnc" class="prefix__animable" fill="#ff725e"/><path d="M86.72 180.82a4.23 4.23 0 01-.56-1.77 11.55 11.55 0 01.17-4.47 11.42 11.42 0 011.84-4.08c.68-.93 1.24-1.38 1.28-1.33s-1.81 2.21-2.56 5.54.01 6.08-.17 6.11z" style="transform-origin:87.7344px 174.993px" id="prefix__elur93kynm8s9" class="prefix__animable" fill="#263238"/><path d="M78.46 210a4.38 4.38 0 00-1.2 1.7 2.75 2.75 0 00.18 2.1 2.87 2.87 0 002.17 1.34 3 3 0 002.46-.72 2.76 2.76 0 00.81-1.95 4 4 0 00-.64-2s.22.08.47.39a2.77 2.77 0 01.58 1.56 3.13 3.13 0 01-.84 2.35 3.48 3.48 0 01-2.92.91 3.32 3.32 0 01-2.53-1.59 3.09 3.09 0 01-.09-2.5 2.88 2.88 0 011-1.32c.32-.22.54-.27.55-.27z" style="transform-origin:79.9928px 212.86px" id="prefix__elsj80v56jzx" class="prefix__animable" fill="#455a64"/><path d="M140.37 186.82c-.11 0 .33-1.54.34-4a17.87 17.87 0 00-9.43-15.93c-2.19-1.19-3.74-1.53-3.71-1.64a3.39 3.39 0 011.09.2 15.37 15.37 0 012.81 1.08 17.38 17.38 0 019.65 16.3 16 16 0 01-.4 3 3.8 3.8 0 01-.35.99z" style="transform-origin:134.352px 176.035px" id="prefix__eli1g1wsrje1" class="prefix__animable" fill="#ff725e"/><path d="M115.1 196.73c-.06.07-.44-.29-1.13-.71a7 7 0 00-2.92-1 6.89 6.89 0 00-3.07.39c-.77.27-1.21.54-1.26.46s.33-.45 1.1-.84a6 6 0 013.29-.59 6.17 6.17 0 013.1 1.25c.67.54.95 1 .89 1.04z" style="transform-origin:110.912px 195.573px" id="prefix__elvtzmxjnl79" class="prefix__animable" fill="#ff725e"/><path d="M132.74 198.42a11.18 11.18 0 01-3.58 0 11.32 11.32 0 01-3.53-.55 11.26 11.26 0 013.57 0 11.26 11.26 0 013.54.55z" style="transform-origin:129.185px 198.146px" id="prefix__el057vi7iemuw9" class="prefix__animable" fill="#ff725e"/><path d="M197.25 285.34s5.67-13.47-2-12c-11.75 2.24-10 13.67-10 13.67z" style="transform-origin:192.213px 280.119px" id="prefix__elyieuvxxunze" class="prefix__animable" fill="#eb996e"/><path d="M208.17 224.92a10.38 10.38 0 00-3.07-.59c6.38 4.74 8.11 16.94 3.64 29.26-4.36 12-13.18 20.19-21 20.13l-.62-.16c-6.21-4.85-7.85-16.9-3.44-29.08s13.5-20.5 21.41-20.15a10.51 10.51 0 00-2.63-1.44C194 219.81 183 228.57 178 242.45c-4.89 13.48-2.35 26.8 5.59 30.37h-.16l-15.64 40a3.44 3.44 0 006.41 2.52l15.8-40.16c8.49 3.07 19.45-5.68 24.48-19.56s2.18-27.62-6.31-30.7z" style="transform-origin:192.259px 269.899px" id="prefix__elcpntpod3b4" class="prefix__animable" fill="#263238"/><path d="M201.11 261.1a5.61 5.61 0 01.48-1.22l1.46-3.23a56.92 56.92 0 003.86-11 25.6 25.6 0 000-11.48 32 32 0 00-1.66-4.52 4.53 4.53 0 01.72 1.1 16.09 16.09 0 011.33 3.31 24.38 24.38 0 01.17 11.71 49.66 49.66 0 01-4.05 11c-.67 1.34-1.23 2.42-1.63 3.15a5.11 5.11 0 01-.68 1.18z" style="transform-origin:204.606px 245.375px" id="prefix__el9nitrnpwigs" class="prefix__animable" fill="#263238"/><path d="M199.47 264.3c.11.12-.37.79-1.09 1.5s-1.38 1.19-1.49 1.08.37-.78 1.09-1.49 1.38-1.2 1.49-1.09z" style="transform-origin:198.18px 265.59px" id="prefix__elr9o3iatk9vf" class="prefix__animable" fill="#263238"/><path d="M182.41 279.32c-1.21-2.29-2.62-5.45-4.75-6.93s-5.09-3.19-7.59-1a161.51 161.51 0 018.73 13.92z" style="transform-origin:176.24px 277.828px" id="prefix__elw6z6sbco49" class="prefix__animable" fill="#eb996e"/><path d="M199.07 275.27s-.47-2.66-4.37-1.49-16.12 3.72-13.76 6.32 6.53 1.43 6.53 1.43-6.79 1.47-6.14 2.89 1.78 3.88 4.67 2.34 10.91-4.15 10.91-4.15z" style="transform-origin:189.855px 280.366px" id="prefix__elxfraivg0a5m" class="prefix__animable" fill="#eb996e"/><path d="M198.63 281.21v-.67a1.36 1.36 0 00-.92-1.24 5 5 0 00-2.55.38l-3.25.87c-2.31.61-4.41 1.12-5.94 1.46a11.56 11.56 0 01-2.5.45 11.17 11.17 0 012.4-.84c1.5-.45 3.58-1 5.89-1.62l3.26-.83a5 5 0 012.83-.26 1.63 1.63 0 011 1.64c-.03.45-.2.67-.22.66z" style="transform-origin:191.163px 280.637px" id="prefix__el5brny55k63m" class="prefix__animable" fill="#263238"/><path d="M94.35 309.52l11.8 21.88 58.58-29.5s8.62-16.56 10.05-16.35 7.77 2.94 7.77 2.94 9-4.86 10.94-3.54 4.56 17.32 2.86 22.27-19.49 14.92-19.49 14.92-48 31.52-68.87 42.59c-13.74 7.3-25.86-1.41-34-15.21l-13.88-29.37" style="transform-origin:128.504px 326.048px" id="prefix__eluvamfdann68" class="prefix__animable" fill="#ffbe9d"/></g><defs><filter id="prefix__active" height="200%"><feMorphology in="SourceAlpha" result="DILATED" operator="dilate" radius="2"/><feFlood flood-color="#32DFEC" flood-opacity="1" result="PINK"/><feComposite in="PINK" in2="DILATED" operator="in" result="OUTLINE"/><feMerge><feMergeNode in="OUTLINE"/><feMergeNode in="SourceGraphic"/></feMerge></filter><filter id="prefix__hover" height="200%"><feMorphology in="SourceAlpha" result="DILATED" operator="dilate" radius="2"/><feFlood flood-color="red" flood-opacity=".5" result="PINK"/><feComposite in="PINK" in2="DILATED" operator="in" result="OUTLINE"/><feMerge><feMergeNode in="OUTLINE"/><feMergeNode in="SourceGraphic"/></feMerge><feColorMatrix values="0 0 0 0 0 0 1 0 0 0 0 0 0 0 0 0 0 0 1 0"/></filter></defs></svg>