<svg id="Layer_1" data-name="Layer 1" xmlns="http://www.w3.org/2000/svg" viewBox="0 0 470.6 648"><defs><style>.cls-1{fill:#fff;}</style></defs><path class="cls-1" d="M183.75,398.11c-3.46,8.09-3.83,16.62-3.39,25.23a48.62,48.62,0,0,0,17,34.86c10.53,9.28,23.18,13.63,37.64,12.93,16-.79,28.89-7,39.16-19.33,18.29-22,14.3-58.69-9.3-75.86a53,53,0,0,0-41.69-9.52C205.11,369.67,191.44,379.91,183.75,398.11Z"/><path class="cls-1" d="M43.8,279.88c19-26.57,43-47.57,70.56-64.95,23.86-15,50.33-21.92,77.36-27.76,20.95-4.51,42.22-5.44,63.35-4,33.37,2.33,64.95,11.16,93.83,29,21.91,13.58,42,29.2,59.49,48C428.6,282,443.72,307,454.54,334.53c6.47,16.51,10.21,33.75,12.83,51.23a47.47,47.47,0,0,1-.05,12.26c-.14,1.19-2.41,3-3.75,3.05-29.89,1-58.67-3.86-86.4-15.56-26.25-11.07-47.49-28.48-66.9-48.87-15.38-16.16-34.92-24.81-56.83-28.59-26.22-4.51-51-.16-74.43,11.85-21.53,11.05-36,28.78-45.25,50.86-5.3,12.64-9,25.75-9.76,39.56-.08,1.5-.93,2.95-1.55,4.79h-5.74c-54.26,0-112.45.41-116.46,0C-2.22,365,18,316,43.8,279.88Z"/><path class="cls-1" d="M0,177.05C0,108,59.07,6.71,175.92,2.25L332.41,1.09Q397,.6,461.63,0c6.95-.06,7-.13,6.94,6.71-.3,32-10.68,60.11-34.16,82.31-16.48,15.57-36.6,25-58.45,30.82-12.53,3.35-25.32,4.22-38.18,4.24-44.39.08-88.78-.21-133.16.13-22.78.18-43.11,7.5-59.28,24.2-15.71,16.21-21.4,39.31-22.52,43.4C69.13,215.24,17.43,268.56,0,332.4Z"/><path class="cls-1" d="M391.85,634.47C345.11,587.55,251.4,494.91,245.76,488.68c33.39-8.13,53.75-29.55,64.11-62.14,1.55,1.29,77.61,76.47,149.21,149.06,9.58,9.16,21.21,39.7-4.24,62.13C431.91,658,401,643.62,391.85,634.47Z"/><path class="cls-1" d="M180.43,389.22c8-19.14,22.58-30.09,41.9-33.56a56.69,56.69,0,0,1,44.59,10.18c25.26,18.36,29.52,57.62,9.95,81.16-11,13.21-24.71,19.83-41.88,20.67-15.48.75-29-3.9-40.27-13.82a52,52,0,0,1-18.19-37.3C176.07,407.33,176.46,398.22,180.43,389.22Z"/></svg>